<svg xmlns="http://www.w3.org/2000/svg" viewBox="0 0 64 64">
  <defs>
    <linearGradient id="g" x1="0%" y1="0%" x2="100%" y2="100%">
      <stop offset="0%" stop-color="#0f6d69"/>
      <stop offset="100%" stop-color="#bc6a2c"/>
    </linearGradient>
  </defs>
  <rect x="4" y="4" width="56" height="56" rx="16" fill="url(#g)"/>
  <path d="M18 24c0-5 4-8 11-8h11v8H29c-2 0-3 1-3 3s1 3 3 3h7v8h-7c-7 0-11-3-11-8v-6z" fill="#f7f4ef"/>
  <path d="M46 40c0 5-4 8-11 8H24v-8h11c2 0 3-1 3-3s-1-3-3-3h-7v-8h7c7 0 11 3 11 8v6z" fill="#f7f4ef"/>
</svg>
